<svg t="1607438426307" class="icon" viewBox="0 0 1024 1024" version="1.1" xmlns="http://www.w3.org/2000/svg" p-id="3322" width="128" height="128"><path d="M560.222793 381.509017 738.680231 203.323778 599.320253 63.962777l357.480764 0 0 357.482811L817.440016 282.08254 639.254777 460.542025 560.222793 381.509017zM560.222793 640.113843l178.458461 178.185238L599.320253 957.661106l357.480764 0 0-357.481787L817.440016 739.541343 639.254777 561.082882 560.222793 640.113843zM459.678866 640.113843 281.221428 818.299081l139.362025 139.362025L63.100642 957.661106l0-357.481787 139.362025 139.362025 178.185238-178.458461L459.678866 640.113843zM459.678866 381.509017 281.221428 203.323778 420.583452 63.962777 63.100642 63.962777l0 357.482811 139.362025-139.362025L380.647905 460.542025 459.678866 381.509017zM459.678866 381.509017" p-id="3323"></path></svg>