<svg t="1607135987158" class="icon" viewBox="0 0 1024 1024" version="1.1" xmlns="http://www.w3.org/2000/svg" p-id="2592" width="128" height="128"><path d="M524.3904 630.912l-5.5808 186.368c-0.256 8.3712-7.68 14.9504-16.64 14.72-8.96-0.256-16-7.1936-15.7696-15.5392l5.5552-185.9584a452.2496 452.2496 0 0 1-101.3504-16.128c-1.7408 64.5632-5.6832 119.0912-11.8016 163.6352a17.5104 17.5104 0 0 1-34.7136-4.7616c6.2464-45.5168 10.1888-102.2976 11.776-170.2912a388.6592 388.6592 0 0 1-88.7552-47.2576 297.728 297.728 0 0 1-36.2752 106.24 17.5104 17.5104 0 0 1-30.464-17.3312 263.936 263.936 0 0 0 34.2016-115.0464 360.704 360.704 0 0 1-30.6688-31.2832c-14.5408 29.7728-30.336 51.2768-47.8208 64.4864a17.5104 17.5104 0 0 1-21.12-27.9808c15.0528-11.3408 30.208-33.9456 44.6976-67.7376a363.4176 363.4176 0 0 1-26.4704-44.928 17.5104 17.5104 0 0 1 31.3856-15.616c59.136 119.04 182.9888 189.4912 330.0608 189.4912a367.1808 367.1808 0 0 0 228.1472-79.2064 368.896 368.896 0 0 0 94.0544-110.9504 17.5104 17.5104 0 1 1 30.6688 16.9728c-7.6544 13.7984-16.0256 27.0336-25.088 39.7056 15.0784 36.3008 30.8736 60.416 46.592 72.2688a17.5104 17.5104 0 1 1-21.0944 27.9808c-18.3808-13.9008-34.9184-36.9408-50.0736-69.1968a403.5072 403.5072 0 0 1-46.7712 45.4144 263.2192 263.2192 0 0 0 33.4592 105.6256 17.5104 17.5104 0 0 1-30.464 17.3056 297.6256 297.6256 0 0 1-35.1744-98.9952c-24.832 16.64-51.4816 30.5152-79.5392 41.3184 1.5872 67.4304 5.504 123.776 11.7248 169.0112a17.5104 17.5104 0 0 1-34.7136 4.7616c-6.0672-44.2112-9.984-98.2528-11.776-162.2016a402.9696 402.9696 0 0 1-100.1984 15.104z m190.5664-341.0688a19.2 19.2 0 1 1-22.8608 30.848c-50.2784-37.248-115.584-58.2912-185.0368-58.2912-60.0832 0-117.1712 15.744-164.3008 44.3648a19.2 19.2 0 1 1-19.9168-32.7936c53.1456-32.3328 117.1456-49.9712 184.2176-49.9712 77.5936 0 150.912 23.6288 207.872 65.8432z" fill="#8a8a8a" p-id="2593"></path></svg>