<svg t="1606961406128" class="icon" viewBox="0 0 1024 1024" version="1.1" xmlns="http://www.w3.org/2000/svg" p-id="13009" width="128" height="128"><path d="M832 960H192c-35.3 0-64-26.7-64-59.8v-448c0-33 28.7-59.7 64-59.7h640c35.3 0 64 26.7 64 59.7v448c0 33.1-28.7 59.8-64 59.8M512 541.9c-53 0-96 40.1-96 89.6 0 33.1 19.4 61.7 48 77.2V794c0 25.7 21.5 46.7 48 46.7s48-20.9 48-46.7v-85.3c28.6-15.5 48-44.1 48-77.2 0-49.5-43-89.6-96-89.6m0-388.3c-106 0-192 80.2-192 179.2h-96C224 184.3 352.9 64 512 64s288 120.3 288 268.8h-96c0-99-86-179.2-192-179.2m0 0" p-id="13010"></path></svg>