<svg t="1606825601413" class="icon" viewBox="0 0 1024 1024" version="1.1" xmlns="http://www.w3.org/2000/svg" p-id="1109" width="64" height="64"><path d="M108.8 239.01c126.47-9.59 243.16-54.18 340.41-124.12C470.79 99.59 491.72 82.62 512 64c30.17 28.03 61.91 52.31 95.23 72.82 90.33 57.3 195.27 93.65 307.97 102.19v190.52C915.2 676.85 750.29 893.81 512 960c-238.29-66.19-403.2-283.15-403.2-530.47V239.01z" fill="#386BF3" p-id="1110"></path><path d="M512 512m-207.27 0a207.27 207.27 0 1 0 414.54 0 207.27 207.27 0 1 0-414.54 0Z" fill="#C3D2FB" p-id="1111"></path><path d="M481.2 392.64h110.38l-41.4 78.39h57.92L468.4 665.9l18.84-132.82H415.9z" fill="#3D4265" p-id="1112"></path></svg>